<svg aria-hidden="true" style="position: absolute; width: 0; height: 0; overflow: hidden;" version="1.1" xmlns="http://www.w3.org/2000/svg" xmlns:xlink="http://www.w3.org/1999/xlink">
<defs>
<symbol id="icon-6" viewBox="0 0 62 32">
<path   d="M31.124 14.854c-0.291-0.424-0.43-0.926-0.397-1.431v-2.075c0-0.636 0.132-1.119 0.395-1.45s0.715-0.495 1.356-0.494c0.602 0 1.029 0.141 1.282 0.422 0.276 0.359 0.41 0.798 0.379 1.241v0.488h-1.077v-0.494c0.004-0.162-0.007-0.323-0.031-0.483-0.016-0.109-0.070-0.211-0.154-0.287-0.111-0.082-0.25-0.122-0.39-0.112-0.148-0.010-0.294 0.032-0.41 0.118-0.094 0.085-0.156 0.196-0.178 0.317-0.031 0.169-0.045 0.341-0.042 0.513v2.518c-0.017 0.243 0.031 0.486 0.138 0.707 0.054 0.075 0.128 0.134 0.215 0.171s0.183 0.051 0.278 0.040c0.138 0.011 0.275-0.030 0.381-0.114 0.088-0.082 0.144-0.19 0.161-0.306 0.025-0.167 0.036-0.336 0.033-0.505v-0.511h1.077v0.466c0.030 0.462-0.101 0.92-0.372 1.304-0.248 0.308-0.669 0.462-1.289 0.462s-1.088-0.165-1.353-0.507z"></path>
<path   d="M35.607 14.876c-0.272-0.323-0.408-0.794-0.408-1.416v-2.182c0-0.616 0.136-1.083 0.408-1.399s0.727-0.474 1.364-0.473c0.633 0 1.086 0.158 1.358 0.473 0.272 0.317 0.41 0.783 0.41 1.399v2.182c0 0.616-0.138 1.089-0.415 1.414s-0.727 0.488-1.353 0.488-1.090-0.165-1.364-0.485zM37.473 14.352c0.097-0.202 0.142-0.424 0.129-0.646v-2.672c0.013-0.218-0.031-0.435-0.127-0.633-0.055-0.076-0.131-0.137-0.22-0.174s-0.187-0.050-0.284-0.037c-0.097-0.013-0.195 0-0.285 0.037s-0.166 0.097-0.221 0.174c-0.098 0.198-0.142 0.415-0.129 0.633v2.685c-0.014 0.222 0.031 0.444 0.129 0.646 0.063 0.068 0.14 0.123 0.227 0.16s0.181 0.057 0.277 0.057 0.19-0.019 0.277-0.057c0.087-0.037 0.164-0.092 0.227-0.16v-0.013z"></path>
<path   d="M40.035 9.468h1.159l0.872 4.027 0.892-4.027h1.128l0.114 5.812h-0.834l-0.089-4.040-0.861 4.040h-0.669l-0.892-4.054-0.082 4.054h-0.843l0.105-5.812z"></path>
<path   d="M45.5 9.468h1.806c1.040 0 1.561 0.55 1.561 1.65 0 1.054-0.548 1.58-1.643 1.579h-0.615v2.583h-1.115l0.007-5.812zM47.043 11.952c0.11 0.013 0.222 0.004 0.328-0.028s0.203-0.085 0.285-0.156c0.128-0.196 0.184-0.427 0.161-0.656 0.006-0.177-0.012-0.355-0.053-0.528-0.016-0.058-0.044-0.112-0.082-0.159s-0.086-0.087-0.141-0.117c-0.155-0.070-0.326-0.102-0.497-0.093h-0.433v1.737h0.433z"></path>
<path   d="M50.474 9.468h1.197l1.228 5.812h-1.039l-0.243-1.34h-1.068l-0.25 1.34h-1.055l1.228-5.812zM51.497 13.267l-0.417-2.44-0.417 2.44h0.834z"></path>
<path   d="M53.891 9.468h0.78l1.494 3.316v-3.316h0.925v5.812h-0.742l-1.503-3.461v3.461h-0.956l0.002-5.812z"></path>
<path   d="M59.258 13.064l-1.242-3.588h1.046l0.758 2.305 0.711-2.305h1.023l-1.226 3.588v2.216h-1.070v-2.216z"></path>
<path   d="M32.845 17.822v0.304h-0.91v2.362h-0.381v-2.362h-0.914v-0.304h2.205z"></path>
<path   d="M35.697 20.488h-0.294c-0.030 0.002-0.059-0.007-0.083-0.025-0.022-0.015-0.039-0.037-0.049-0.061l-0.263-0.633h-1.262l-0.263 0.633c-0.008 0.026-0.021 0.051-0.040 0.072-0.023 0.018-0.053 0.027-0.083 0.025h-0.294l1.115-2.666h0.388l1.128 2.655zM33.851 19.498h1.052l-0.446-1.085c-0.033-0.082-0.060-0.166-0.083-0.251-0.016 0.051-0.029 0.099-0.042 0.141l-0.040 0.112-0.441 1.083z"></path>
<path   d="M37.618 20.226c0.070 0.003 0.14 0.003 0.21 0 0.060-0.006 0.12-0.016 0.178-0.032 0.055-0.013 0.108-0.029 0.16-0.049 0.049-0.019 0.098-0.042 0.149-0.065v-0.599h-0.446c-0.011 0.001-0.022-0.001-0.032-0.005s-0.020-0.009-0.028-0.017c-0.007-0.006-0.013-0.014-0.017-0.022s-0.006-0.018-0.005-0.027v-0.205h0.865v1.022c-0.071 0.048-0.145 0.090-0.223 0.127-0.079 0.037-0.162 0.068-0.247 0.091-0.091 0.025-0.184 0.044-0.279 0.055-0.108 0.011-0.217 0.017-0.326 0.017-0.192 0.002-0.383-0.032-0.562-0.099-0.167-0.064-0.319-0.158-0.446-0.279-0.124-0.122-0.222-0.265-0.288-0.422-0.070-0.177-0.105-0.364-0.103-0.553-0.002-0.19 0.032-0.379 0.1-0.557 0.064-0.158 0.162-0.302 0.288-0.422 0.127-0.12 0.279-0.214 0.446-0.277 0.191-0.068 0.394-0.102 0.597-0.099 0.104-0 0.207 0.008 0.31 0.023 0.091 0.014 0.18 0.037 0.265 0.068 0.078 0.028 0.153 0.063 0.223 0.106 0.068 0.042 0.133 0.088 0.194 0.139l-0.107 0.165c-0.008 0.015-0.021 0.028-0.036 0.037s-0.033 0.014-0.051 0.014c-0.025-0.001-0.049-0.008-0.069-0.021-0.033-0.017-0.069-0.038-0.109-0.063-0.047-0.028-0.097-0.052-0.149-0.072-0.066-0.025-0.135-0.045-0.205-0.059-0.093-0.016-0.188-0.024-0.283-0.023-0.147-0.002-0.293 0.023-0.43 0.074-0.124 0.047-0.236 0.119-0.328 0.211-0.092 0.096-0.163 0.209-0.207 0.331-0.1 0.289-0.1 0.6 0 0.889 0.049 0.125 0.125 0.24 0.223 0.336 0.091 0.091 0.202 0.163 0.326 0.211 0.142 0.046 0.292 0.064 0.441 0.053z"></path>
<path   d="M41.172 20.184h1.217v0.304h-1.59v-2.666h0.381l-0.009 2.362z"></path>
<path   d="M43.656 20.488h-0.381v-2.666h0.381v2.666z"></path>
<path   d="M45.074 17.834c0.023 0.012 0.042 0.029 0.058 0.049l1.63 2.009c-0.002-0.032-0.002-0.063 0-0.095 0-0.030 0-0.059 0-0.087v-1.9h0.332v2.676h-0.192c-0.028 0.002-0.057-0.003-0.083-0.015-0.023-0.013-0.044-0.030-0.060-0.051l-1.628-2.007c0 0.032 0 0.061 0 0.091s0 0.057 0 0.082v1.9h-0.319v-2.666h0.198c0.022 0 0.043 0.004 0.062 0.013z"></path>
<path   d="M49.901 17.822v0.293h-1.351v0.88h1.095v0.283h-1.095v0.91h1.351v0.293h-1.743v-2.659h1.743z"></path>
<path   d="M9.95 1.359l16.929 4.551v15.946l-16.929-4.548v-15.948zM8.864 0v18.082l19.098 5.135v-18.080l-19.098-5.137z"></path>
<path   d="M19.1 31.611l-19.1-5.139v-18.080l19.1 5.137v18.082z"></path>
<path   d="M9.181 1.155l16.708 4.493-7.105 6.729-16.71-4.496 7.108-6.726zM8.864 0l-8.864 8.392 19.1 5.137 8.862-8.392-19.098-5.137z"></path>
<path   d="M20.175 30.593l7.788-7.374-7.788-2.096v9.47z"></path>
</symbol>
<symbol id="icon-5" viewBox="0 0 40 32">
<path   d="M3.055 26.742c0.156 0.194 0.24 0.438 0.236 0.688 0.008 0.163-0.021 0.326-0.084 0.476s-0.159 0.285-0.281 0.393c-0.304 0.231-0.681 0.343-1.061 0.317h-1.865v-4.361h1.827c0.361-0.024 0.718 0.078 1.012 0.29 0.118 0.099 0.211 0.224 0.273 0.366s0.089 0.296 0.081 0.45c0.011 0.241-0.065 0.477-0.212 0.667-0.142 0.173-0.338 0.293-0.556 0.341 0.247 0.045 0.471 0.177 0.63 0.373zM0.868 26.084h0.781c0.177 0.013 0.354-0.038 0.496-0.145 0.059-0.053 0.104-0.12 0.133-0.193s0.041-0.153 0.034-0.233c0.006-0.079-0.006-0.158-0.035-0.232s-0.073-0.14-0.13-0.194c-0.147-0.11-0.329-0.162-0.511-0.147h-0.768v1.144zM2.222 27.756c0.063-0.055 0.112-0.123 0.144-0.2s0.046-0.16 0.041-0.243c0.005-0.084-0.010-0.168-0.042-0.246s-0.083-0.147-0.146-0.202c-0.153-0.114-0.341-0.17-0.53-0.158h-0.819v1.199h0.83c0.187 0.011 0.372-0.043 0.524-0.151z"></path>
<path   d="M6.79 28.617l-1.016-1.704h-0.382v1.704h-0.874v-4.361h1.655c0.417-0.029 0.83 0.104 1.152 0.371 0.231 0.237 0.371 0.549 0.393 0.879s-0.073 0.659-0.27 0.925c-0.204 0.235-0.483 0.391-0.789 0.443l1.082 1.743h-0.951zM5.391 26.318h0.715c0.497 0 0.745-0.22 0.745-0.66 0.005-0.090-0.008-0.18-0.040-0.264s-0.080-0.161-0.143-0.226c-0.157-0.131-0.359-0.195-0.562-0.177h-0.724l0.008 1.327z"></path>
<path   d="M11.568 27.739h-1.742l-0.308 0.878h-0.917l1.6-4.312h0.991l1.594 4.312h-0.917l-0.301-0.878zM11.335 27.079l-0.637-1.841-0.637 1.841h1.273z"></path>
<path   d="M17.55 28.617h-0.868l-1.946-2.965v2.965h-0.866v-4.361h0.866l1.946 2.983v-2.983h0.868v4.361z"></path>
<path   d="M22.502 27.573c-0.179 0.329-0.453 0.597-0.785 0.769-0.378 0.192-0.797 0.286-1.22 0.275h-1.545v-4.361h1.545c0.422-0.011 0.841 0.081 1.22 0.268 0.332 0.168 0.606 0.433 0.785 0.761 0.179 0.355 0.272 0.747 0.272 1.144s-0.093 0.789-0.272 1.144zM21.509 27.469c0.248-0.29 0.384-0.659 0.384-1.041s-0.136-0.751-0.384-1.041c-0.299-0.262-0.69-0.396-1.086-0.371h-0.603v2.823h0.603c0.397 0.025 0.787-0.108 1.086-0.371z"></path>
<path   d="M12.111 0c0 0 11.201 4.246 10.963 10.39v10.392c0 0-11.193-4.248-10.959-10.392l-0.004-10.39z"></path>
<path   d="M33.054 18.349c2.115-1.462 4.562-2.367 7.117-2.633v-3.253c-2.943 1.139-5.44 3.204-7.117 5.886z"></path>
<path   d="M31.783 19.329c1.731-3.5 4.733-6.202 8.388-7.548v-9.374c0 0-15.952 6.048-15.614 14.797v14.795c0 0 0.711-0.27 1.829-0.778 0-0.473 0-0.95 0.051-1.43 0.33-4.062 2.253-7.826 5.347-10.464z"></path>
<path   d="M30.266 24.825c0.084-1.026 0.271-2.041 0.558-3.029-1.926 2.279-3.093 5.106-3.335 8.085-0.023 0.281-0.036 0.562-0.043 0.852 0.906-0.437 1.961-0.982 3.068-1.623-0.283-1.409-0.366-2.851-0.248-4.284z"></path>
<path   d="M30.9 24.878c-0.106 1.296-0.040 2.601 0.197 3.879 4.358-2.618 9.255-6.664 9.066-11.553v-0.426c-3.114 0.35-6.027 1.716-8.292 3.89-0.53 1.347-0.858 2.766-0.972 4.21z"></path>
</symbol>
<symbol id="icon-4" viewBox="0 0 60 32">
<path   d="M9.23 9.548h-0.002c-1.684 0-3.048 1.33-3.048 2.971v0.002c0 1.641 1.365 2.971 3.048 2.971h0.002c1.684 0 3.048-1.33 3.048-2.971v-0.002c0-1.641-1.365-2.971-3.048-2.971z"></path>
<path   d="M31.73 8.599c-0.005-2.279-0.936-4.463-2.589-6.074s-3.894-2.519-6.233-2.524v0c-2.339 0.004-4.581 0.911-6.235 2.523s-2.586 3.796-2.59 6.076v0 12.566c0 0 17.645-1.915 17.647-12.564v-0.002z"></path>
<path   d="M0 25.289c0.004 1.586 0.652 3.105 1.803 4.226s2.709 1.753 4.336 1.758c1.627-0.005 3.185-0.636 4.336-1.757s1.799-2.64 1.803-4.225v-8.744c0 0-12.278 1.334-12.278 8.742zM6.139 26.856c-0.318 0-0.629-0.092-0.893-0.264s-0.47-0.417-0.592-0.703-0.154-0.601-0.091-0.905c0.062-0.304 0.215-0.583 0.44-0.802s0.511-0.368 0.823-0.429c0.312-0.060 0.635-0.029 0.929 0.089s0.545 0.319 0.721 0.577c0.177 0.258 0.271 0.561 0.271 0.87 0.001 0.206-0.040 0.411-0.121 0.601s-0.199 0.364-0.348 0.51c-0.149 0.146-0.327 0.262-0.522 0.341s-0.405 0.12-0.617 0.12v-0.006z"></path>
<path   d="M18.671 25.884h-1.256v1.297h-0.654v-3.174h2.067v0.53h-1.413v0.82h1.256v0.528zM21.815 25.666c0 0.312-0.055 0.587-0.166 0.822s-0.269 0.417-0.475 0.545c-0.205 0.128-0.44 0.192-0.706 0.192-0.263 0-0.498-0.063-0.704-0.19s-0.366-0.307-0.48-0.541c-0.113-0.235-0.171-0.506-0.172-0.811v-0.157c0-0.312 0.056-0.587 0.168-0.824 0.113-0.238 0.273-0.421 0.477-0.547 0.206-0.128 0.442-0.192 0.706-0.192s0.499 0.064 0.704 0.192c0.206 0.126 0.366 0.309 0.477 0.547 0.113 0.237 0.17 0.511 0.17 0.822v0.142zM21.152 25.522c0-0.333-0.060-0.586-0.179-0.759s-0.289-0.259-0.51-0.259c-0.22 0-0.389 0.086-0.508 0.257-0.119 0.17-0.18 0.42-0.181 0.75v0.155c0 0.324 0.060 0.576 0.179 0.754s0.291 0.268 0.515 0.268c0.219 0 0.388-0.086 0.506-0.257 0.118-0.173 0.177-0.424 0.179-0.754v-0.155zM23.936 26.348c0-0.124-0.044-0.218-0.131-0.283-0.087-0.067-0.244-0.137-0.471-0.209-0.227-0.074-0.406-0.147-0.539-0.218-0.36-0.195-0.541-0.457-0.541-0.787 0-0.172 0.048-0.324 0.144-0.458 0.097-0.135 0.236-0.241 0.416-0.316 0.182-0.076 0.385-0.113 0.61-0.113 0.227 0 0.429 0.041 0.606 0.124 0.177 0.081 0.315 0.197 0.412 0.347 0.099 0.15 0.148 0.32 0.148 0.51h-0.654c0-0.145-0.046-0.258-0.137-0.338-0.092-0.081-0.22-0.122-0.386-0.122-0.16 0-0.284 0.034-0.373 0.102-0.089 0.067-0.133 0.156-0.133 0.266 0 0.103 0.052 0.19 0.155 0.259 0.105 0.070 0.258 0.135 0.46 0.196 0.372 0.112 0.643 0.251 0.813 0.416s0.255 0.372 0.255 0.619c0 0.275-0.104 0.491-0.312 0.648-0.208 0.156-0.488 0.233-0.839 0.233-0.244 0-0.467-0.044-0.667-0.133-0.201-0.090-0.354-0.213-0.46-0.368-0.105-0.156-0.157-0.336-0.157-0.541h0.656c0 0.35 0.209 0.525 0.628 0.525 0.156 0 0.277-0.031 0.364-0.094 0.087-0.064 0.131-0.153 0.131-0.266zM27.427 24.536h-0.972v2.645h-0.654v-2.645h-0.959v-0.53h2.586v0.53zM29.712 25.805h-1.256v0.85h1.474v0.525h-2.128v-3.174h2.124v0.53h-1.469v0.757h1.256v0.512zM31.489 26.019h-0.521v1.162h-0.654v-3.174h1.179c0.375 0 0.664 0.084 0.868 0.251s0.305 0.403 0.305 0.709c0 0.217-0.047 0.397-0.142 0.543-0.093 0.144-0.235 0.259-0.425 0.344l0.687 1.297v0.030h-0.702l-0.595-1.162zM30.968 25.489h0.528c0.164 0 0.291-0.041 0.382-0.124 0.090-0.084 0.135-0.2 0.135-0.347 0-0.15-0.043-0.267-0.129-0.353-0.084-0.086-0.214-0.129-0.39-0.129h-0.525v0.953zM34.931 26.063v1.118h-0.654v-3.174h1.238c0.238 0 0.448 0.044 0.628 0.131 0.182 0.087 0.321 0.212 0.419 0.373 0.097 0.16 0.146 0.342 0.146 0.547 0 0.311-0.107 0.557-0.321 0.737-0.212 0.179-0.507 0.268-0.883 0.268h-0.573zM34.931 25.533h0.584c0.173 0 0.305-0.041 0.395-0.122 0.092-0.081 0.137-0.198 0.137-0.349 0-0.156-0.046-0.281-0.137-0.377s-0.218-0.145-0.379-0.148h-0.6v0.996zM39.069 25.805h-1.256v0.85h1.474v0.525h-2.128v-3.174h2.124v0.53h-1.469v0.757h1.256v0.512zM42.104 24.536h-0.972v2.645h-0.654v-2.645h-0.959v-0.53h2.586v0.53zM44.389 25.805h-1.256v0.85h1.474v0.525h-2.128v-3.174h2.124v0.53h-1.47v0.757h1.256v0.512zM46.166 26.019h-0.521v1.162h-0.654v-3.174h1.18c0.375 0 0.664 0.084 0.868 0.251s0.305 0.403 0.305 0.709c0 0.217-0.047 0.397-0.142 0.543-0.093 0.144-0.235 0.259-0.425 0.344l0.687 1.297v0.030h-0.702l-0.595-1.162zM45.645 25.489h0.528c0.164 0 0.291-0.041 0.382-0.124 0.090-0.084 0.135-0.2 0.135-0.347 0-0.15-0.043-0.267-0.129-0.353-0.084-0.086-0.214-0.129-0.39-0.129h-0.525v0.953zM49.489 26.348c0-0.124-0.044-0.218-0.131-0.283-0.087-0.067-0.244-0.137-0.471-0.209-0.227-0.074-0.406-0.147-0.538-0.218-0.36-0.195-0.541-0.457-0.541-0.787 0-0.172 0.048-0.324 0.144-0.458 0.097-0.135 0.236-0.241 0.416-0.316 0.182-0.076 0.385-0.113 0.61-0.113 0.227 0 0.429 0.041 0.606 0.124 0.177 0.081 0.315 0.197 0.412 0.347 0.099 0.15 0.148 0.32 0.148 0.51h-0.654c0-0.145-0.046-0.258-0.137-0.338-0.092-0.081-0.22-0.122-0.386-0.122-0.16 0-0.284 0.034-0.373 0.102-0.089 0.067-0.133 0.156-0.133 0.266 0 0.103 0.052 0.19 0.155 0.259 0.105 0.070 0.258 0.135 0.46 0.196 0.372 0.112 0.643 0.251 0.813 0.416s0.255 0.372 0.255 0.619c0 0.275-0.104 0.491-0.312 0.648-0.208 0.156-0.488 0.233-0.839 0.233-0.244 0-0.467-0.044-0.667-0.133-0.201-0.090-0.354-0.213-0.46-0.368-0.105-0.156-0.157-0.336-0.157-0.541h0.656c0 0.35 0.209 0.525 0.628 0.525 0.156 0 0.277-0.031 0.364-0.094 0.087-0.064 0.131-0.153 0.131-0.266z"></path>
</symbol>
<symbol id="icon-3" viewBox="0 0 34 32">
<path   d="M5.643 31.315c0.012 0 0.024 0.003 0.035 0.007s0.021 0.011 0.029 0.018l0.166 0.159c-0.129 0.129-0.288 0.231-0.467 0.302-0.21 0.076-0.435 0.113-0.663 0.108-0.214 0.004-0.426-0.031-0.623-0.101-0.178-0.065-0.338-0.162-0.469-0.285-0.134-0.128-0.237-0.278-0.303-0.44-0.073-0.182-0.108-0.373-0.106-0.565-0.003-0.193 0.036-0.386 0.114-0.567 0.073-0.164 0.182-0.314 0.322-0.44 0.142-0.124 0.312-0.222 0.499-0.287 0.205-0.069 0.422-0.103 0.642-0.101 0.204-0.004 0.407 0.027 0.596 0.092 0.165 0.062 0.316 0.148 0.447 0.255l-0.139 0.17c-0.010 0.012-0.022 0.022-0.035 0.031-0.016 0.010-0.036 0.014-0.056 0.013-0.022-0.001-0.042-0.008-0.060-0.018l-0.075-0.045-0.104-0.058c-0.045-0.021-0.091-0.040-0.139-0.056-0.062-0.019-0.125-0.034-0.189-0.045-0.082-0.013-0.164-0.019-0.247-0.018-0.158-0.002-0.315 0.024-0.461 0.076-0.136 0.048-0.26 0.121-0.361 0.213-0.104 0.098-0.183 0.214-0.235 0.339-0.058 0.144-0.087 0.295-0.085 0.448-0.002 0.155 0.026 0.309 0.085 0.455 0.051 0.125 0.129 0.239 0.231 0.338 0.095 0.092 0.213 0.163 0.345 0.209 0.136 0.049 0.281 0.073 0.428 0.072 0.085 0.001 0.17-0.004 0.253-0.014 0.137-0.015 0.268-0.056 0.384-0.121 0.058-0.033 0.113-0.071 0.164-0.112 0.021-0.018 0.049-0.028 0.079-0.029z"></path>
<path   d="M10.441 30.517c0.003 0.192-0.035 0.382-0.112 0.561-0.068 0.163-0.174 0.311-0.313 0.436s-0.306 0.222-0.491 0.286c-0.407 0.135-0.856 0.135-1.263 0-0.184-0.065-0.35-0.163-0.488-0.287-0.138-0.127-0.246-0.276-0.316-0.44-0.15-0.364-0.15-0.761 0-1.125 0.071-0.164 0.178-0.314 0.316-0.442 0.139-0.12 0.305-0.214 0.488-0.276 0.406-0.137 0.857-0.137 1.263 0 0.185 0.065 0.351 0.163 0.49 0.287 0.137 0.125 0.243 0.273 0.314 0.435 0.077 0.181 0.115 0.372 0.112 0.565zM10.005 30.517c0.003-0.153-0.023-0.306-0.079-0.451-0.047-0.125-0.122-0.239-0.222-0.338-0.097-0.093-0.217-0.166-0.351-0.213-0.296-0.099-0.623-0.099-0.918 0-0.134 0.047-0.254 0.12-0.351 0.213-0.101 0.097-0.178 0.212-0.224 0.338-0.106 0.294-0.106 0.609 0 0.903 0.047 0.125 0.123 0.24 0.224 0.338 0.098 0.092 0.217 0.164 0.351 0.211 0.296 0.096 0.622 0.096 0.918 0 0.134-0.047 0.254-0.119 0.351-0.211 0.1-0.098 0.175-0.213 0.222-0.338 0.056-0.145 0.082-0.298 0.079-0.451z"></path>
<path   d="M13.715 30.99l0.044 0.101c0.017-0.036 0.031-0.069 0.048-0.101 0.016-0.034 0.034-0.067 0.054-0.099l1.062-1.677c0.021-0.029 0.039-0.047 0.060-0.052 0.028-0.007 0.058-0.011 0.087-0.009h0.314v2.727h-0.372v-2.005c0-0.025 0-0.054 0-0.085-0.002-0.031-0.002-0.063 0-0.094l-1.068 1.7c-0.014 0.026-0.035 0.047-0.062 0.062s-0.059 0.023-0.091 0.023h-0.060c-0.032 0-0.064-0.007-0.091-0.022s-0.049-0.037-0.062-0.062l-1.099-1.711c0 0.032 0 0.065 0 0.097s0 0.061 0 0.087v2.005h-0.359v-2.722h0.314c0.029-0.002 0.059 0.002 0.087 0.009 0.026 0.011 0.046 0.030 0.058 0.052l1.084 1.678c0.021 0.031 0.039 0.064 0.054 0.097z"></path>
<path   d="M17.71 30.855v1.021h-0.415v-2.723h0.926c0.175-0.003 0.349 0.017 0.517 0.060 0.134 0.033 0.259 0.091 0.366 0.17 0.092 0.074 0.163 0.165 0.208 0.267 0.049 0.111 0.073 0.229 0.071 0.348 0.002 0.119-0.024 0.238-0.077 0.348-0.050 0.104-0.127 0.198-0.224 0.272-0.107 0.082-0.232 0.143-0.368 0.18-0.162 0.045-0.331 0.066-0.501 0.063l-0.503-0.007zM17.71 30.562h0.503c0.109 0.001 0.218-0.013 0.322-0.042 0.086-0.025 0.165-0.065 0.233-0.117 0.062-0.050 0.111-0.112 0.141-0.18 0.034-0.073 0.051-0.151 0.050-0.229 0.005-0.076-0.009-0.151-0.042-0.222s-0.082-0.134-0.145-0.186c-0.159-0.108-0.358-0.16-0.559-0.146h-0.503v1.122z"></path>
<path   d="M23.294 31.88h-0.328c-0.033 0.001-0.065-0.008-0.091-0.025-0.024-0.017-0.042-0.039-0.054-0.063l-0.282-0.659h-1.419l-0.293 0.659c-0.011 0.024-0.029 0.045-0.052 0.061-0.026 0.018-0.060 0.028-0.093 0.027h-0.328l1.246-2.727h0.432l1.263 2.727zM21.237 30.867h1.172l-0.494-1.11c-0.038-0.084-0.069-0.169-0.093-0.256l-0.048 0.143c-0.015 0.043-0.031 0.083-0.046 0.116l-0.49 1.108z"></path>
<path   d="M25.089 29.165c0.025 0.012 0.046 0.029 0.062 0.049l1.818 2.056c0-0.033 0-0.065 0-0.096s0-0.061 0-0.090v-1.931h0.372v2.727h-0.208c-0.029 0.001-0.059-0.005-0.085-0.016-0.026-0.013-0.048-0.030-0.066-0.051l-1.816-2.054c0.002 0.031 0.002 0.063 0 0.094 0 0.031 0 0.058 0 0.083v1.944h-0.372v-2.727h0.22c0.026-0.001 0.051 0.004 0.075 0.013z"></path>
<path   d="M30.402 30.795v1.083h-0.415v-1.083l-1.149-1.642h0.372c0.032-0.002 0.064 0.007 0.089 0.023 0.023 0.018 0.042 0.038 0.056 0.061l0.719 1.059c0.029 0.045 0.054 0.087 0.075 0.126s0.037 0.078 0.052 0.116l0.054-0.117c0.020-0.043 0.044-0.084 0.071-0.125l0.708-1.067c0.015-0.021 0.033-0.041 0.054-0.058 0.025-0.019 0.057-0.028 0.089-0.027h0.376l-1.151 1.65z"></path>
<path   d="M13.51 24.576c0.181 0.020 0.364 0.036 0.548 0.051 2.803-1.089 5.174-2.873 6.817-5.126s2.485-4.878 2.421-7.546l-3.089-2.684c0.628 2.84 0.334 5.776-0.848 8.479s-3.208 5.067-5.849 6.827z"></path>
<path   d="M12.407 24.451l0.083 0.014c2.822-1.754 4.974-4.203 6.176-7.030s1.402-5.904 0.571-8.83l-4.4-3.823c1.78 3.142 2.496 6.659 2.066 10.141s-1.989 6.786-4.496 9.528z"></path>
<path   d="M27.328 15.106c-0.747 2.931-2.563 5.574-5.177 7.537-0.763 0.577-1.587 1.090-2.459 1.534 2.128-0.544 4.085-1.504 5.718-2.809s2.9-2.917 3.703-4.714l-1.784-1.549z"></path>
<path   d="M26.628 14.674l-2.541-2.207c-0.049 2.517-0.872 4.976-2.385 7.123s-3.66 3.902-6.217 5.084h0.012c0.57-0 1.139-0.030 1.705-0.088 2.39-0.848 4.502-2.196 6.147-3.926s2.771-3.785 3.278-5.985z"></path>
<path   d="M12.774 3.17l-3.031-2.637c-2.709 0.91-5.040 2.509-6.686 4.588s-2.531 4.542-2.54 7.066v0c0.010 2.789 1.090 5.495 3.070 7.69s4.745 3.754 7.859 4.43c2.78-2.943 4.407-6.579 4.646-10.38s-0.924-7.569-3.319-10.757z"></path>
<path   d="M33.631 14.268c-0.011-3.309-1.529-6.479-4.221-8.818s-6.342-3.658-10.15-3.668c-1.76-0.002-3.504 0.281-5.146 0.832l18.557 16.123c0.635-1.425 0.961-2.94 0.96-4.469z"></path>
</symbol>
<symbol id="icon-2" viewBox="0 0 25 32">
<path   d="M10.531 1.806h-0.084c-0.129-0.008-0.258-0.011-0.388-0.014v0h-0.28c-0.244 0-0.494 0.006-0.741 0.019-0.019-0.001-0.037-0.001-0.056 0-2.243 0.127-4.44 0.688-6.471 1.651l-0.266 0.128v13.625l0.623-0.211c0.546-0.188 1.129-0.357 1.731-0.513 1.629-0.418 3.301-0.64 4.982-0.662v1.79c-0.223 0.002-0.439 0.008-0.655 0.019h-0.051c-1.294 0.071-2.577 0.268-3.833 0.588-1.59 0.398-3.124 0.996-4.566 1.779v-17.475c1.497-0.873 3.11-1.529 4.79-1.948 1.475-0.381 2.992-0.576 4.515-0.582h0.263c0.314 0.008 0.621 0.022 0.909 0.044 0.759 0.053 1.511 0.173 2.249 0.358v1.762c-0.717-0.167-1.445-0.277-2.179-0.329-0.015-0.001-0.030-0.003-0.045-0.004-0.152-0.013-0.304-0.026-0.446-0.026zM13.633 3.607c0.391 0.030 0.796 0.044 1.205 0.044 1.601-0.006 3.195-0.21 4.747-0.609 1.589-0.4 3.123-0.998 4.564-1.781v17.163c-1.498 0.873-3.111 1.529-4.792 1.948-1.475 0.379-2.992 0.574-4.515 0.581-1.154 0.009-2.304-0.126-3.425-0.404v-17.275c0.265 0.061 0.537 0.117 0.814 0.164 0.455 0.077 0.934 0.133 1.401 0.167zM22.367 3.74l-0.623 0.21c-0.573 0.192-1.15 0.365-1.731 0.518-1.691 0.434-3.428 0.657-5.173 0.663-0.406 0-0.78-0.011-1.141-0.034l-0.497-0.033v14.017l0.427 0.038c0.395 0.034 0.803 0.052 1.214 0.052 1.374-0.006 2.743-0.183 4.074-0.527 1.096-0.275 2.162-0.658 3.184-1.144l0.266-0.128v-13.63z"></path>
<path   d="M1.684 25.977c-0.090-0.093-0.197-0.166-0.317-0.214s-0.247-0.071-0.376-0.066c-0.137-0.002-0.273 0.024-0.4 0.075-0.117 0.046-0.222 0.116-0.311 0.205s-0.156 0.196-0.201 0.313c-0.049 0.123-0.073 0.254-0.072 0.387v2.335c-0.006 0.165 0.026 0.328 0.092 0.479 0.055 0.12 0.135 0.226 0.233 0.313 0.093 0.079 0.203 0.135 0.321 0.166 0.114 0.032 0.231 0.048 0.349 0.049 0.13 0.001 0.259-0.027 0.377-0.081 0.117-0.051 0.222-0.124 0.311-0.216 0.087-0.091 0.156-0.197 0.204-0.313 0.050-0.118 0.075-0.244 0.075-0.372v-0.261h-0.61v0.208c0.002 0.071-0.010 0.142-0.036 0.208-0.020 0.050-0.050 0.095-0.089 0.131-0.038 0.031-0.081 0.053-0.128 0.067-0.041 0.014-0.084 0.021-0.128 0.022-0.054 0.006-0.11-0.002-0.16-0.024s-0.094-0.057-0.126-0.101c-0.058-0.094-0.086-0.203-0.081-0.313v-2.177c-0.004-0.121 0.022-0.241 0.075-0.349 0.032-0.049 0.077-0.089 0.129-0.114s0.112-0.034 0.17-0.027c0.053-0.002 0.105 0.009 0.152 0.032s0.089 0.057 0.12 0.099c0.068 0.090 0.104 0.2 0.101 0.313v0.202h0.604v-0.238c0.001-0.14-0.024-0.278-0.075-0.408-0.045-0.122-0.114-0.234-0.204-0.329z"></path>
<path   d="M5.31 25.95c-0.195-0.164-0.44-0.255-0.694-0.257-0.124 0-0.248 0.023-0.364 0.066-0.119 0.042-0.228 0.107-0.322 0.191-0.101 0.091-0.182 0.202-0.237 0.327-0.061 0.143-0.092 0.297-0.089 0.452v2.239c-0.004 0.158 0.026 0.314 0.089 0.459 0.055 0.12 0.136 0.227 0.237 0.313 0.093 0.087 0.203 0.154 0.322 0.197 0.117 0.043 0.24 0.065 0.364 0.066s0.248-0.023 0.364-0.066c0.121-0.044 0.233-0.111 0.33-0.197 0.097-0.087 0.176-0.194 0.23-0.313 0.063-0.145 0.093-0.301 0.089-0.459v-2.239c0.003-0.155-0.027-0.31-0.089-0.452-0.054-0.123-0.133-0.235-0.23-0.327zM5.025 28.969c0.005 0.060-0.003 0.12-0.024 0.176s-0.054 0.107-0.097 0.148c-0.081 0.068-0.182 0.105-0.287 0.105s-0.207-0.037-0.287-0.105c-0.043-0.041-0.076-0.092-0.097-0.148s-0.029-0.116-0.024-0.176v-2.239c-0.005-0.060 0.003-0.12 0.024-0.176s0.054-0.107 0.097-0.148c0.081-0.068 0.182-0.105 0.287-0.105s0.207 0.037 0.287 0.105c0.043 0.041 0.076 0.092 0.097 0.148s0.029 0.116 0.024 0.176v2.239z"></path>
<path   d="M10.072 29.969v-4.239h-0.587l-0.771 2.244h-0.011l-0.777-2.244h-0.581v4.239h0.606v-2.579h0.011l0.593 1.823h0.302l0.598-1.823h0.011v2.579h0.606z"></path>
<path   d="M13.513 26.027c-0.093-0.105-0.211-0.184-0.343-0.232-0.142-0.046-0.29-0.068-0.439-0.066h-0.9v4.239h0.604v-1.656h0.311c0.188 0.009 0.376-0.031 0.545-0.116 0.137-0.076 0.252-0.188 0.332-0.324 0.070-0.113 0.117-0.238 0.139-0.369 0.024-0.16 0.035-0.321 0.033-0.482 0.006-0.204-0.014-0.407-0.059-0.606-0.040-0.147-0.117-0.281-0.223-0.39zM13.201 27.319c-0.003 0.077-0.022 0.152-0.056 0.221-0.035 0.065-0.089 0.117-0.156 0.149-0.089 0.040-0.187 0.058-0.285 0.053h-0.275v-1.441h0.311c0.094-0.005 0.187 0.014 0.272 0.053 0.062 0.036 0.112 0.091 0.142 0.157 0.033 0.074 0.051 0.155 0.053 0.236 0 0.089 0 0.183 0 0.282s0.006 0.2 0 0.291h-0.006z"></path>
<path   d="M16.374 25.73h-0.495l-0.934 4.239h0.604l0.177-0.911h0.823l0.177 0.911h0.604l-0.957-4.239zM15.817 28.481l0.297-1.537h0.011l0.296 1.537h-0.604z"></path>
<path   d="M20.277 28.284h-0.011l-0.912-2.554h-0.581v4.239h0.604v-2.549h0.012l0.923 2.549h0.568v-4.239h-0.604v2.554z"></path>
<path   d="M23.968 25.73l-0.486 1.685h-0.012l-0.486-1.685h-0.64l0.83 2.447v1.792h0.604v-1.792l0.83-2.447h-0.64z"></path>
<path   d="M0 31.166h0.291v0.817h0.198v-0.817h0.29v-0.167h-0.778v0.167z"></path>
<path   d="M2.447 30.998l-0.381 0.984h0.21l0.081-0.224h0.392l0.084 0.224h0.215l-0.391-0.984h-0.21zM2.416 31.593l0.134-0.365 0.134 0.365h-0.268z"></path>
<path   d="M4.866 31.62h0.227v0.127c-0.066 0.053-0.149 0.082-0.234 0.083-0.040 0.002-0.079-0.005-0.116-0.021s-0.068-0.041-0.093-0.072c-0.052-0.075-0.078-0.165-0.073-0.257 0-0.219 0.095-0.329 0.283-0.329 0.050-0.005 0.099 0.008 0.14 0.037s0.070 0.071 0.082 0.12l0.195-0.038c-0.042-0.192-0.181-0.289-0.417-0.289-0.127-0.003-0.25 0.042-0.344 0.127-0.050 0.049-0.088 0.108-0.112 0.174s-0.034 0.135-0.029 0.205c-0.006 0.135 0.039 0.267 0.126 0.369 0.048 0.050 0.107 0.088 0.171 0.113s0.134 0.035 0.203 0.031c0.154 0.004 0.304-0.052 0.417-0.157v-0.388h-0.427v0.166z"></path>
<path   d="M7.337 30.998h-0.199v0.984h0.69v-0.167h-0.49v-0.817z"></path>
<path   d="M9.426 30.998h-0.199v0.984h0.199v-0.984z"></path>
<path   d="M11.469 31.656l-0.403-0.657h-0.193v0.984h0.185v-0.643l0.395 0.643h0.198v-0.984h-0.182v0.657z"></path>
<path   d="M13.315 31.549h0.49v-0.167h-0.49v-0.216h0.528v-0.167h-0.727v0.984h0.747v-0.167h-0.548v-0.266z"></path>
<path   d="M17.792 31.387h-0.388v-0.388h-0.198v0.984h0.198v-0.43h0.388v0.43h0.198v-0.984h-0.198v0.388z"></path>
<path   d="M19.649 31.549h0.492v-0.167h-0.492v-0.216h0.529v-0.167h-0.727v0.984h0.746v-0.167h-0.548v-0.266z"></path>
<path   d="M22.168 31.549c0.171-0.027 0.258-0.117 0.258-0.274 0.005-0.042-0.001-0.084-0.018-0.123s-0.044-0.072-0.078-0.096c-0.089-0.045-0.189-0.065-0.288-0.058h-0.417v0.984h0.198v-0.412h0.039c0.042-0.003 0.084 0.005 0.123 0.022 0.029 0.018 0.053 0.043 0.070 0.072l0.215 0.313h0.237l-0.12-0.192c-0.053-0.095-0.128-0.176-0.218-0.236zM21.969 31.413h-0.146v-0.247h0.156c0.068-0.005 0.136 0.002 0.201 0.023 0.014 0.013 0.026 0.029 0.033 0.046s0.011 0.037 0.010 0.056c-0.001 0.019-0.006 0.038-0.015 0.055s-0.022 0.032-0.037 0.043c-0.065 0.020-0.133 0.028-0.201 0.023z"></path>
<path   d="M24.067 31.549h0.49v-0.167h-0.49v-0.216h0.529v-0.167h-0.729v0.984h0.747v-0.167h-0.548v-0.266z"></path>
</symbol>
<symbol id="icon-1" viewBox="0 0 28 32">
<path   d="M4.085 0l4.771 4.517-8.856-0.005v21.915h23.149v-8.379l4.766 4.512v-22.559h-23.83zM22.939 17.517l-13.528-12.807h13.528v12.807zM18.739 23.221h-15.076v-14.739h1.066v13.741h14.010v0.998zM7.223 29.344l-0.557 1.147-0.557-1.147h-0.467l0.813 1.529v0.891h0.422v-0.891l0.811-1.529h-0.465zM7.923 31.764l0.196-0.563h0.938l0.198 0.563h0.439l-0.916-2.42h-0.377l-0.914 2.42h0.437zM8.588 29.858l0.351 1.004h-0.701l0.351-1.004zM10.805 30.804c-0.061 0.093-0.091 0.196-0.091 0.307 0 0.204 0.072 0.37 0.214 0.497 0.144 0.126 0.336 0.189 0.575 0.189s0.445-0.065 0.618-0.194l0.136 0.161h0.469l-0.356-0.421c0.14-0.191 0.209-0.435 0.209-0.733h-0.351c0 0.163-0.034 0.311-0.101 0.444l-0.467-0.552 0.165-0.12c0.116-0.084 0.2-0.168 0.251-0.253 0.051-0.085 0.076-0.178 0.076-0.279 0-0.153-0.056-0.281-0.17-0.384-0.112-0.104-0.256-0.156-0.432-0.156-0.195 0-0.35 0.055-0.465 0.166-0.115 0.11-0.173 0.259-0.173 0.449 0 0.078 0.018 0.158 0.055 0.241 0.038 0.083 0.104 0.184 0.198 0.303-0.18 0.129-0.3 0.24-0.361 0.334zM11.897 31.339c-0.119 0.091-0.246 0.136-0.382 0.136-0.121 0-0.217-0.035-0.289-0.105s-0.108-0.161-0.108-0.273c0-0.13 0.067-0.245 0.2-0.346l0.052-0.037 0.529 0.623zM11.463 30.267c-0.114-0.141-0.171-0.258-0.171-0.351 0-0.081 0.023-0.148 0.070-0.201s0.109-0.080 0.188-0.080c0.073 0 0.133 0.023 0.181 0.068 0.048 0.044 0.072 0.098 0.072 0.161 0 0.095-0.034 0.173-0.103 0.234l-0.052 0.042-0.184 0.126zM15.403 31.581c0.166-0.145 0.262-0.347 0.286-0.605h-0.419c-0.022 0.173-0.075 0.296-0.158 0.371s-0.207 0.111-0.372 0.111c-0.181 0-0.318-0.069-0.412-0.206-0.093-0.137-0.14-0.337-0.14-0.598v-0.214c0.002-0.258 0.052-0.454 0.15-0.587 0.099-0.134 0.239-0.201 0.422-0.201 0.157 0 0.277 0.039 0.357 0.116 0.082 0.076 0.133 0.202 0.153 0.376h0.419c-0.027-0.265-0.121-0.47-0.284-0.615s-0.378-0.218-0.645-0.218c-0.198 0-0.373 0.047-0.525 0.141-0.151 0.094-0.267 0.228-0.347 0.402s-0.121 0.375-0.121 0.603v0.226c0.003 0.223 0.045 0.418 0.125 0.587s0.193 0.299 0.339 0.391c0.147 0.091 0.317 0.136 0.51 0.136 0.276 0 0.497-0.072 0.663-0.216zM17.875 31.242c0.082-0.18 0.123-0.388 0.123-0.625v-0.135c-0.001-0.236-0.043-0.443-0.126-0.62-0.083-0.178-0.201-0.315-0.354-0.409-0.152-0.095-0.326-0.143-0.524-0.143s-0.372 0.048-0.525 0.145c-0.152 0.095-0.27 0.233-0.354 0.414-0.083 0.181-0.125 0.389-0.125 0.625v0.136c0.001 0.232 0.043 0.436 0.126 0.613 0.084 0.177 0.203 0.314 0.356 0.411 0.154 0.095 0.329 0.143 0.525 0.143 0.198 0 0.373-0.048 0.525-0.143 0.153-0.096 0.27-0.234 0.352-0.412zM17.424 29.874c0.102 0.143 0.153 0.349 0.153 0.617v0.126c0 0.273-0.050 0.48-0.151 0.622-0.1 0.142-0.243 0.213-0.429 0.213-0.184 0-0.328-0.073-0.432-0.218-0.103-0.145-0.155-0.351-0.155-0.617v-0.14c0.002-0.26 0.054-0.462 0.156-0.603 0.103-0.143 0.245-0.214 0.427-0.214 0.186 0 0.33 0.072 0.43 0.214z"></path>
</symbol>
</defs>
</svg>
